<svg width="24" height="24" viewBox="0 0 24 24" fill="none" xmlns="http://www.w3.org/2000/svg">
<g id="Layer 79">
<path id="Vector" d="M23.3944 20.9623L18.0044 15.6853C19.3499 14.0063 20.0792 11.9312 20.0746 9.7952C20.0746 7.89325 19.4999 6.03401 18.423 4.45259C17.3462 2.87118 15.8156 1.63862 14.0249 0.910769C12.2342 0.182923 10.2637 -0.00751429 8.36273 0.363538C6.46172 0.734591 4.71552 1.65047 3.34497 2.99535C1.97441 4.34024 1.04105 6.05372 0.662918 7.91913C0.284783 9.78454 0.478856 11.7181 1.22059 13.4753C1.96233 15.2324 3.21842 16.7343 4.83003 17.791C6.44163 18.8477 8.33636 19.4116 10.2746 19.4116C12.4513 19.4162 14.566 18.7005 16.2771 17.3802L21.6549 22.6692C21.8855 22.8956 22.1984 23.0227 22.5246 23.0227C22.8508 23.0227 23.1637 22.8956 23.3944 22.6692C23.625 22.4429 23.7546 22.1359 23.7546 21.8158C23.7546 21.4957 23.625 21.1887 23.3944 20.9623V20.9623ZM5.08061 14.952C3.864 13.7846 3.09787 12.2391 2.91293 10.5793C2.72799 8.91943 3.13569 7.24803 4.06649 5.85023C4.99728 4.45244 6.39349 3.41485 8.01691 2.9145C9.64034 2.41415 11.3904 2.48203 12.9685 3.10657C14.5466 3.7311 15.855 4.87359 16.6705 6.33912C17.4859 7.80465 17.7579 9.50242 17.44 11.1428C17.1221 12.7831 16.2341 14.2644 14.9273 15.334C13.6206 16.4035 11.9762 16.995 10.2746 17.0075C8.32593 17.0059 6.45768 16.2449 5.08061 14.8919V14.952Z" fill="white"/>
</g>
</svg>
